<svg width="24" height="24" viewBox="0 0 24 24" fill="none" xmlns="http://www.w3.org/2000/svg">
<g opacity="0.32" clip-path="url(#clip0_44_11260)">
<path d="M22.7632 10.2313L17.8132 5.28125L16.4002 6.69925L20.7002 10.9993H6.61719V12.9993H20.7002L16.4002 17.2993L17.8142 18.7133L22.7642 13.7633C22.9964 13.5311 23.1806 13.2555 23.3063 12.9521C23.432 12.6488 23.4967 12.3236 23.4967 11.9953C23.4967 11.6669 23.432 11.3417 23.3063 11.0384C23.1806 10.735 22.9964 10.4594 22.7642 10.2273L22.7632 10.2313Z" fill="#FF3A3A"/>
<path d="M10.476 21C10.476 21.2652 10.3706 21.5196 10.1831 21.7071C9.99557 21.8946 9.74122 22 9.476 22H3C2.73478 22 2.48043 21.8946 2.29289 21.7071C2.10536 21.5196 2 21.2652 2 21V3C2 2.73478 2.10536 2.48043 2.29289 2.29289C2.48043 2.10536 2.73478 2 3 2H9.476C9.74122 2 9.99557 2.10536 10.1831 2.29289C10.3706 2.48043 10.476 2.73478 10.476 3V8.333H12.476V3C12.476 2.20435 12.1599 1.44129 11.5973 0.87868C11.0347 0.31607 10.2716 0 9.476 0L3 0C2.20435 0 1.44129 0.31607 0.87868 0.87868C0.31607 1.44129 0 2.20435 0 3L0 21C0 21.7956 0.31607 22.5587 0.87868 23.1213C1.44129 23.6839 2.20435 24 3 24H9.476C10.2716 24 11.0347 23.6839 11.5973 23.1213C12.1599 22.5587 12.476 21.7956 12.476 21V15.667H10.476V21Z" fill="#FF3A3A"/>
</g>
<defs>
<clipPath id="clip0_44_11260">
<rect width="24" height="24" fill="white"/>
</clipPath>
</defs>
</svg>
